<?xml version="1.0" encoding="UTF-8"?>
<svg version="1.1" xmlns="http://www.w3.org/2000/svg" width="512" height="512">
<path d="M0 0 C0.73959961 0.19303711 1.47919922 0.38607422 2.24121094 0.58496094 C21.07551577 5.63119571 39.31196098 15.18747816 54 28 C54.90878906 28.78375 55.81757813 29.5675 56.75390625 30.375 C59.21097233 32.54278408 61.61421098 34.7543018 64 37 C64.90105469 37.82177734 64.90105469 37.82177734 65.8203125 38.66015625 C72.41369421 44.90086871 77.97584368 52.46376551 83 60 C85.75196124 60.21851658 88.27838887 60.25175641 91.0234375 60.15234375 C92.69196123 60.12047819 94.36050057 60.08942188 96.02905273 60.05908203 C97.33989334 60.02793304 97.33989334 60.02793304 98.67721558 59.99615479 C113.46515298 59.67463788 127.76135934 59.47061275 142 64 C142.6997998 64.21962402 143.39959961 64.43924805 144.12060547 64.66552734 C164.52151324 71.28773793 181.65133481 82.20503846 197 97 C198.07701172 97.98226562 198.07701172 97.98226562 199.17578125 98.984375 C205.46536293 104.88322115 210.23469978 111.86116307 215 119 C215.63035156 119.93457031 216.26070313 120.86914062 216.91015625 121.83203125 C234.23044184 149.41034475 238.95913247 185.78984875 231.83911133 217.37744141 C225.98202063 240.57300651 214.50045466 260.76553935 198 278 C197.31679688 278.74636719 196.63359375 279.49273437 195.9296875 280.26171875 C189.66722196 286.88236958 182.55651738 291.97963336 175 297 C174.06671875 297.6290625 173.1334375 298.258125 172.171875 298.90625 C166.08303766 302.73351918 159.66700284 305.54524374 153 308.1875 C152.21294678 308.5086377 151.42589355 308.82977539 150.61499023 309.16064453 C132.56548331 316.00951126 114.21405561 316.58407679 95.13818359 316.51757812 C92.4945029 316.52301062 89.85086654 316.52999746 87.2071991 316.53881836 C80.82167282 316.55644739 74.43633637 316.55283461 68.05080317 316.5411678 C62.85452805 316.532073 57.65830551 316.53093533 52.46202469 316.53526306 C51.7178086 316.53587599 50.97359252 316.53648893 50.20682443 316.53712043 C48.69421126 316.53839954 47.1815981 316.5396964 45.66898496 316.5410108 C31.54226299 316.5523704 17.41564546 316.53937507 3.28894062 316.51780933 C-8.79310218 316.49993514 -20.8749912 316.50305407 -32.95703125 316.52148438 C-47.04200748 316.54296044 -61.12689263 316.55127993 -75.21188295 316.53903532 C-76.71780736 316.53776133 -78.22373178 316.53650384 -79.72965622 316.53526306 C-80.47029753 316.53464596 -81.21093884 316.53402886 -81.97402383 316.53339306 C-87.15606146 316.52996084 -92.33804056 316.53572199 -97.52006912 316.54518127 C-103.84653707 316.55647764 -110.1728069 316.55320248 -116.49925257 316.5320583 C-119.71787308 316.52165032 -122.93610236 316.51945427 -126.15472984 316.53065491 C-156.47901904 316.62638766 -183.6455453 310.25601958 -207 290 C-207.80824219 289.33613281 -208.61648437 288.67226563 -209.44921875 287.98828125 C-226.11895576 273.8307809 -236.87705015 254.78741476 -243 234 C-243.3403125 232.89398438 -243.680625 231.78796875 -244.03125 230.6484375 C-248.3995829 213.37734354 -248.12098917 191.03554866 -243 174 C-242.48953125 172.17275391 -242.48953125 172.17275391 -241.96875 170.30859375 C-234.31605043 145.10122185 -217.30740228 122.75600825 -195 108.75 C-194.30914307 108.3156665 -193.61828613 107.88133301 -192.90649414 107.43383789 C-189.1372762 105.12627225 -185.55200371 103.42027322 -181.375 101.9375 C-177.87276058 100.26782772 -177.08370788 99.17999257 -175.4140625 95.58984375 C-174.65928769 93.45430212 -173.97938751 91.30711965 -173.32128906 89.13989258 C-169.21324462 75.65200325 -161.88793128 62.90643581 -153 52 C-152.57041992 51.47180664 -152.14083984 50.94361328 -151.69824219 50.39941406 C-130.66698597 24.68144482 -104.18200299 7.62480822 -72 -1 C-70.81277344 -1.32226562 -69.62554687 -1.64453125 -68.40234375 -1.9765625 C-46.78054795 -6.76153075 -21.2505551 -5.85558633 0 0 Z " fill="#8FC9F8" transform="translate(262,20)"/>
<path d="M0 0 C4.8846525 2.26787438 7.73212562 5.1153475 10 10 C12.10585837 20.57047408 7.37492531 28.94241987 2.63916016 38.01147461 C1.37180082 40.44363948 0.14668257 42.89384938 -1.07421875 45.34960938 C-1.87260373 46.92049102 -2.67330638 48.49019734 -3.4765625 50.05859375 C-3.83932281 50.78259872 -4.20208313 51.5066037 -4.57583618 52.25254822 C-7.36687641 57.53837497 -10.53329152 61.26664576 -16 64 C-21.53042052 64.50502343 -26.41030524 64.73807257 -31.5 62.375 C-35.90060361 58.19442657 -38.24054042 55.08516744 -38.640625 48.93359375 C-38.51513408 40.37821795 -34.51527952 33.41134674 -30.63916016 25.98852539 C-29.37180082 23.55636052 -28.14668257 21.10615062 -26.92578125 18.65039062 C-26.12739627 17.07950898 -25.32669362 15.50980266 -24.5234375 13.94140625 C-24.16067719 13.21740128 -23.79791687 12.4933963 -23.42416382 11.74745178 C-18.04066389 1.55188109 -11.30212285 -1.05032817 0 0 Z " fill="#3096ED" transform="translate(342,432)"/>
<path d="M0 0 C4.8846525 2.26787438 7.73212562 5.1153475 10 10 C12.10585837 20.57047408 7.37492531 28.94241987 2.63916016 38.01147461 C1.37180082 40.44363948 0.14668257 42.89384938 -1.07421875 45.34960938 C-1.87260373 46.92049102 -2.67330638 48.49019734 -3.4765625 50.05859375 C-3.83932281 50.78259872 -4.20208313 51.5066037 -4.57583618 52.25254822 C-7.36687641 57.53837497 -10.53329152 61.26664576 -16 64 C-21.53042052 64.50502343 -26.41030524 64.73807257 -31.5 62.375 C-35.90060361 58.19442657 -38.24054042 55.08516744 -38.640625 48.93359375 C-38.51513408 40.37821795 -34.51527952 33.41134674 -30.63916016 25.98852539 C-29.37180082 23.55636052 -28.14668257 21.10615062 -26.92578125 18.65039062 C-26.12739627 17.07950898 -25.32669362 15.50980266 -24.5234375 13.94140625 C-24.16067719 13.21740128 -23.79791687 12.4933963 -23.42416382 11.74745178 C-18.04066389 1.55188109 -11.30212285 -1.05032817 0 0 Z " fill="#3096ED" transform="translate(246,432)"/>
<path d="M0 0 C4.8846525 2.26787438 7.73212562 5.1153475 10 10 C12.10585837 20.57047408 7.37492531 28.94241987 2.63916016 38.01147461 C1.37180082 40.44363948 0.14668257 42.89384938 -1.07421875 45.34960938 C-1.87260373 46.92049102 -2.67330638 48.49019734 -3.4765625 50.05859375 C-3.83932281 50.78259872 -4.20208313 51.5066037 -4.57583618 52.25254822 C-7.36687641 57.53837497 -10.53329152 61.26664576 -16 64 C-21.53042052 64.50502343 -26.41030524 64.73807257 -31.5 62.375 C-35.90060361 58.19442657 -38.24054042 55.08516744 -38.640625 48.93359375 C-38.51513408 40.37821795 -34.51527952 33.41134674 -30.63916016 25.98852539 C-29.37180082 23.55636052 -28.14668257 21.10615062 -26.92578125 18.65039062 C-26.12739627 17.07950898 -25.32669362 15.50980266 -24.5234375 13.94140625 C-24.16067719 13.21740128 -23.79791687 12.4933963 -23.42416382 11.74745178 C-18.04066389 1.55188109 -11.30212285 -1.05032817 0 0 Z " fill="#3096ED" transform="translate(150,432)"/>
<path d="M0 0 C4.8846525 2.26787438 7.73212562 5.1153475 10 10 C12.10585837 20.57047408 7.37492531 28.94241987 2.63916016 38.01147461 C1.37180082 40.44363948 0.14668257 42.89384938 -1.07421875 45.34960938 C-1.87260373 46.92049102 -2.67330638 48.49019734 -3.4765625 50.05859375 C-3.83932281 50.78259872 -4.20208313 51.5066037 -4.57583618 52.25254822 C-7.36687641 57.53837497 -10.53329152 61.26664576 -16 64 C-21.53042052 64.50502343 -26.41030524 64.73807257 -31.5 62.375 C-35.90060361 58.19442657 -38.24054042 55.08516744 -38.640625 48.93359375 C-38.51513408 40.37821795 -34.51527952 33.41134674 -30.63916016 25.98852539 C-29.37180082 23.55636052 -28.14668257 21.10615062 -26.92578125 18.65039062 C-26.12739627 17.07950898 -25.32669362 15.50980266 -24.5234375 13.94140625 C-24.16067719 13.21740128 -23.79791687 12.4933963 -23.42416382 11.74745178 C-18.04066389 1.55188109 -11.30212285 -1.05032817 0 0 Z " fill="#3096ED" transform="translate(406,368)"/>
<path d="M0 0 C4.8846525 2.26787438 7.73212562 5.1153475 10 10 C12.10585837 20.57047408 7.37492531 28.94241987 2.63916016 38.01147461 C1.37180082 40.44363948 0.14668257 42.89384938 -1.07421875 45.34960938 C-1.87260373 46.92049102 -2.67330638 48.49019734 -3.4765625 50.05859375 C-3.83932281 50.78259872 -4.20208313 51.5066037 -4.57583618 52.25254822 C-7.36687641 57.53837497 -10.53329152 61.26664576 -16 64 C-21.53042052 64.50502343 -26.41030524 64.73807257 -31.5 62.375 C-35.90060361 58.19442657 -38.24054042 55.08516744 -38.640625 48.93359375 C-38.51513408 40.37821795 -34.51527952 33.41134674 -30.63916016 25.98852539 C-29.37180082 23.55636052 -28.14668257 21.10615062 -26.92578125 18.65039062 C-26.12739627 17.07950898 -25.32669362 15.50980266 -24.5234375 13.94140625 C-24.16067719 13.21740128 -23.79791687 12.4933963 -23.42416382 11.74745178 C-18.04066389 1.55188109 -11.30212285 -1.05032817 0 0 Z " fill="#3096ED" transform="translate(310,368)"/>
<path d="M0 0 C4.8846525 2.26787438 7.73212562 5.1153475 10 10 C12.10585837 20.57047408 7.37492531 28.94241987 2.63916016 38.01147461 C1.37180082 40.44363948 0.14668257 42.89384938 -1.07421875 45.34960938 C-1.87260373 46.92049102 -2.67330638 48.49019734 -3.4765625 50.05859375 C-3.83932281 50.78259872 -4.20208313 51.5066037 -4.57583618 52.25254822 C-7.36687641 57.53837497 -10.53329152 61.26664576 -16 64 C-21.53042052 64.50502343 -26.41030524 64.73807257 -31.5 62.375 C-35.90060361 58.19442657 -38.24054042 55.08516744 -38.640625 48.93359375 C-38.51513408 40.37821795 -34.51527952 33.41134674 -30.63916016 25.98852539 C-29.37180082 23.55636052 -28.14668257 21.10615062 -26.92578125 18.65039062 C-26.12739627 17.07950898 -25.32669362 15.50980266 -24.5234375 13.94140625 C-24.16067719 13.21740128 -23.79791687 12.4933963 -23.42416382 11.74745178 C-18.04066389 1.55188109 -11.30212285 -1.05032817 0 0 Z " fill="#3096ED" transform="translate(214,368)"/>
<path d="M0 0 C4.8846525 2.26787438 7.73212562 5.1153475 10 10 C12.10585837 20.57047408 7.37492531 28.94241987 2.63916016 38.01147461 C1.37180082 40.44363948 0.14668257 42.89384938 -1.07421875 45.34960938 C-1.87260373 46.92049102 -2.67330638 48.49019734 -3.4765625 50.05859375 C-3.83932281 50.78259872 -4.20208313 51.5066037 -4.57583618 52.25254822 C-7.36687641 57.53837497 -10.53329152 61.26664576 -16 64 C-21.53042052 64.50502343 -26.41030524 64.73807257 -31.5 62.375 C-35.90060361 58.19442657 -38.24054042 55.08516744 -38.640625 48.93359375 C-38.51513408 40.37821795 -34.51527952 33.41134674 -30.63916016 25.98852539 C-29.37180082 23.55636052 -28.14668257 21.10615062 -26.92578125 18.65039062 C-26.12739627 17.07950898 -25.32669362 15.50980266 -24.5234375 13.94140625 C-24.16067719 13.21740128 -23.79791687 12.4933963 -23.42416382 11.74745178 C-18.04066389 1.55188109 -11.30212285 -1.05032817 0 0 Z " fill="#3096ED" transform="translate(118,368)"/>
</svg>
